<?xml version="1.0"?>
<svg xmlns="http://www.w3.org/2000/svg" xmlns:xlink="http://www.w3.org/1999/xlink" xmlns:svgjs="http://svgjs.com/svgjs" version="1.1" width="512" height="512" x="0" y="0" viewBox="0 0 341.333 341.333" style="enable-background:new 0 0 512 512" xml:space="preserve" class=""><g>
<g xmlns="http://www.w3.org/2000/svg">
	<g>
		<g>
			<path d="M170.667,85.333c23.573,0,42.667-19.093,42.667-42.667C213.333,19.093,194.24,0,170.667,0S128,19.093,128,42.667     C128,66.24,147.093,85.333,170.667,85.333z" fill="#28527a" data-original="#000000" style=""/>
			<path d="M170.667,128C147.093,128,128,147.093,128,170.667s19.093,42.667,42.667,42.667s42.667-19.093,42.667-42.667     S194.24,128,170.667,128z" fill="#28527a" data-original="#000000" style=""/>
			<path d="M170.667,256C147.093,256,128,275.093,128,298.667c0,23.573,19.093,42.667,42.667,42.667s42.667-19.093,42.667-42.667     C213.333,275.093,194.24,256,170.667,256z" fill="#28527a" data-original="#000000" style=""/>
		</g>
	</g>
</g>
<g xmlns="http://www.w3.org/2000/svg">
</g>
<g xmlns="http://www.w3.org/2000/svg">
</g>
<g xmlns="http://www.w3.org/2000/svg">
</g>
<g xmlns="http://www.w3.org/2000/svg">
</g>
<g xmlns="http://www.w3.org/2000/svg">
</g>
<g xmlns="http://www.w3.org/2000/svg">
</g>
<g xmlns="http://www.w3.org/2000/svg">
</g>
<g xmlns="http://www.w3.org/2000/svg">
</g>
<g xmlns="http://www.w3.org/2000/svg">
</g>
<g xmlns="http://www.w3.org/2000/svg">
</g>
<g xmlns="http://www.w3.org/2000/svg">
</g>
<g xmlns="http://www.w3.org/2000/svg">
</g>
<g xmlns="http://www.w3.org/2000/svg">
</g>
<g xmlns="http://www.w3.org/2000/svg">
</g>
<g xmlns="http://www.w3.org/2000/svg">
</g>
</g></svg>
